<svg xmlns="http://www.w3.org/2000/svg" viewBox="0 0 464.49 452.88"><defs><style>.a{fill:#000b1d;}.b{fill:#fff;}</style></defs><title>adobe-stock</title><path class="a" d="M82.25,0h300a82.18,82.18,0,0,1,82.25,82.25V370.63a82.18,82.18,0,0,1-82.25,82.25h-300A82.18,82.18,0,0,1,0,370.63V82.25A82.18,82.18,0,0,1,82.25,0Z"/><path class="b" d="M162.64,323.21a156.26,156.26,0,0,1-31.55-2.9,103.59,103.59,0,0,1-23.81-7.55c-1.74-.77-2.51-2.52-2.51-5.23V270.37a2.1,2.1,0,0,1,.77-1.74,1.8,1.8,0,0,1,1.94.2A106.83,106.83,0,0,0,135.15,281a102.45,102.45,0,0,0,28.65,4.06c11.8,0,20.32-1.74,25.35-5.42a15.9,15.9,0,0,0,7.55-13.54,18.3,18.3,0,0,0-2.52-9.49,29.67,29.67,0,0,0-8.71-8.32A93.94,93.94,0,0,0,168.25,240l-15.68-6.58c-12.58-5.42-22.64-11.23-29.8-17.23a47.83,47.83,0,0,1-14.71-19.74A65.25,65.25,0,0,1,104,173.6a56.26,56.26,0,0,1,33.29-52.25c11-5.23,24.78-7.94,41.23-7.94a192,192,0,0,1,27.87,1.94,65,65,0,0,1,20.71,6,4.18,4.18,0,0,1,2.12,4.06v35.23a1.92,1.92,0,0,1-.77,1.35c-.58.58-1.16.39-1.93-.19a89.65,89.65,0,0,0-21.87-7.74,106,106,0,0,0-25.94-2.71,66.76,66.76,0,0,0-15.29,1.55,37.24,37.24,0,0,0-10.06,3.87,14.42,14.42,0,0,0-5.81,6,16.67,16.67,0,0,0-1.93,7.35,16,16,0,0,0,2.71,8.9,29.62,29.62,0,0,0,9.29,7.75,195.39,195.39,0,0,0,18,9.09l11.62,4.45c13.74,5.62,24.38,11.62,32.12,18a55.92,55.92,0,0,1,16.26,20.52,62.75,62.75,0,0,1,4.65,23.8A55,55,0,0,1,230.38,295a64,64,0,0,1-27.29,21.29C192.25,320.69,178.51,323.21,162.64,323.21Z"/><path class="b" d="M345.92,289.15V314.7c0,2.32-.78,3.67-2.52,4.06a98.29,98.29,0,0,1-12.38,3.1A65.24,65.24,0,0,1,316.11,323c-13.54,0-24.19-3.49-31.74-10.65S272.76,294,272.76,278.5V200.89H254c-1.74,0-2.52-1-2.52-2.71l.2-30.77c0-1.74,1-2.51,2.7-2.51h18.78c.19-3.49.19-7.36.58-12s.77-9.29,1.16-13.94,1-8.51,1.35-11.42a8.43,8.43,0,0,1,1-1.74,3,3,0,0,1,1.55-1.16L315.92,120a2.18,2.18,0,0,1,1.55,0c.39.2.58.78.58,1.94-.39,4.84-.77,11.23-1,19.55-.19,8.13-.19,15.87-.39,23.61h27.49c1.16,0,1.93.77,1.93,2.52L345.92,199a1.92,1.92,0,0,1-1.55,2.13H316.89v67.16c0,7,.77,12.19,3.09,15.09s6.78,4.45,13.17,4.45a44.56,44.56,0,0,0,5.22-.19c1.55-.19,3.29-.19,5-.39a1.88,1.88,0,0,1,1.74.2C345.73,287.6,345.92,288.18,345.92,289.15Z"/></svg>